<?xml version="1.0" encoding="utf-8"?>
<!-- Generator: Adobe Illustrator 18.0.0, SVG Export Plug-In . SVG Version: 6.00 Build 0)  -->
<!DOCTYPE svg PUBLIC "-//W3C//DTD SVG 1.1//EN" "http://www.w3.org/Graphics/SVG/1.1/DTD/svg11.dtd">
<svg version="1.1" id="Layer_1" xmlns="http://www.w3.org/2000/svg" xmlns:xlink="http://www.w3.org/1999/xlink" x="0px" y="0px"
	 width="100px" height="100px" viewBox="0 0 100 100" enable-background="new 0 0 100 100" xml:space="preserve">
<polygon fill="#F7B40D" points="61.1,30 68.2,24.3 81.7,22.4 88.6,84.3 76.2,84.4 61.1,95.5 "/>
<polygon fill="#F7B40D" points="16.5,13.2 28.9,11.9 31.8,6.9 31.3,17.8 "/>
<polygon fill="#F7B40D" points="35.3,7.3 35.3,18.9 58.9,27.2 66.2,21.2 80.5,19.3 "/>
<path fill="#F7B40D" d="M57.8,30.1L13.9,15.7l-0.5,59.8l44.4,20.1L57.8,30.1z M50.5,39.3c-0.2,0.4-0.5,0.6-1,0.8
	c-0.4,11.5-2.3,17.6-6.2,19.8c-1.1,0.6-1.7,0.6-3,0.6c-2.9,0-5.5-0.5-9.8-2.6c-10.1-4.5-10.4-22.1-10.7-28.1
	c-0.5-0.5-0.7-1.2-0.5-1.8c0.4-0.8,1.7-1.1,2.9-0.6c1.2,0.5,1.9,1.7,1.5,2.5c-0.2,0.4-0.6,0.7-1.1,0.8c0.2,4.4,1.3,19.6,8.7,23.6
	c3.9,2.1,8.5,3,11.1,1.5c2.9-1.7,4.1-6.3,4.5-16.4c-0.8-0.6-1.1-1.4-0.8-2.1c0.4-0.8,1.7-1.1,2.9-0.6C50.2,37.3,50.9,38.4,50.5,39.3
	z"/>
</svg>
