<?xml version="1.0" encoding="utf-8"?>
<!-- Generator: Adobe Illustrator 18.0.0, SVG Export Plug-In . SVG Version: 6.00 Build 0)  -->
<!DOCTYPE svg PUBLIC "-//W3C//DTD SVG 1.1//EN" "http://www.w3.org/Graphics/SVG/1.1/DTD/svg11.dtd">
<svg version="1.1" xmlns="http://www.w3.org/2000/svg" xmlns:xlink="http://www.w3.org/1999/xlink" x="0px" y="0px" width="100px"
	 height="100px" viewBox="111 -1.5 100 100" enable-background="new 111 -1.5 100 100" xml:space="preserve">
<g id="Layer_1">
	<path fill="#E50000" d="M152.9,70.2c-2.2,0-4.1,1.8-4.1,4.1s1.8,4.1,4.1,4.1s4.1-1.8,4.1-4.1C157,72,155.1,70.2,152.9,70.2z
		 M177.1,70.2c-2.2,0-4.1,1.8-4.1,4.1s1.8,4.1,4.1,4.1s4.1-1.8,4.1-4.1C181.1,72,179.3,70.2,177.1,70.2z"/>
	<polygon fill="#E50000" points="191.4,33.4 141.7,27.9 139.9,19.3 125.1,14.8 123.7,19.6 135.6,23.2 144.8,67.4 186,67.3 187,62.2 
		148.9,62.4 147.6,56.4 187.7,56.3 	"/>
</g>
<g id="Layer_2">
</g>
</svg>
