<?xml version="1.0" encoding="utf-8"?>
<!-- Generator: Adobe Illustrator 18.0.0, SVG Export Plug-In . SVG Version: 6.00 Build 0)  -->
<!DOCTYPE svg PUBLIC "-//W3C//DTD SVG 1.1//EN" "http://www.w3.org/Graphics/SVG/1.1/DTD/svg11.dtd">
<svg version="1.1" id="Layer_1" xmlns="http://www.w3.org/2000/svg" xmlns:xlink="http://www.w3.org/1999/xlink" x="0px" y="0px"
	 width="150px" height="150px" viewBox="0 0 150 150" enable-background="new 0 0 150 150" xml:space="preserve">
<g id="Layer_1_1_">
	<g>
		<path fill="#E50000" d="M178.1,52.3c-0.7,0-1.2,0.5-1.2,1.2c0,3.3-2.7,6.1-6.1,6.1c-3.3,0-6.1-2.7-6.1-6.1c0-0.7-0.5-1.2-1.2-1.2
			s-1.2,0.5-1.2,1.2c0,4.7,3.8,8.5,8.5,8.5s8.5-3.8,8.5-8.5C179.4,52.9,178.9,52.3,178.1,52.3z"/>
		<path fill="#E50000" d="M161.1,45.1h-4.9c-0.7,0-1.2,0.5-1.2,1.2s0.5,1.2,1.2,1.2h4.9c0.7,0,1.2-0.5,1.2-1.2
			C162.4,45.6,161.9,45.1,161.1,45.1z"/>
		<path fill="#E50000" d="M185.4,45.1h-4.8c-0.7,0-1.2,0.5-1.2,1.2s0.5,1.2,1.2,1.2h4.9c0.7,0,1.2-0.5,1.2-1.2
			C186.6,45.6,186.1,45.1,185.4,45.1z"/>
		<path fill="#E50000" d="M109.8,19H51.6c-6,0-10.9,4.9-10.9,10.9V110c0,6,4.9,10.9,10.9,10.9l0,0h58.2l0,0c3.3,0,6-2.7,6-6.1V95.4
			l0,0l0,0V25C115.9,21.7,113.2,19,109.8,19z M113.5,25.1v70.4c0,2-1.6,3.6-3.6,3.6l0,0h-57V21.4h57
			C111.9,21.4,113.5,23.1,113.5,25.1z M43.1,29.9c0-4.3,3.2-7.8,7.3-8.4v77.7c-2.9,0.3-5.5,1.8-7.3,4V29.9z M109.8,118.5
			L109.8,118.5H51.6l0,0c-4.7,0-8.5-3.8-8.5-8.5c0-4.7,3.8-8.5,8.5-8.5h58.2l0,0c1.4,0,2.6-0.5,3.6-1.2v14.6
			C113.5,116.9,111.9,118.5,109.8,118.5z"/>
		<path fill="#E50000" d="M108.6,110c0-0.7-0.5-1.2-1.2-1.2h-4.9c-0.7,0-1.2,0.5-1.2,1.2c0,0.7,0.5,1.2,1.2,1.2h4.9
			C108.1,111.2,108.6,110.7,108.6,110z"/>
		<path fill="#E50000" d="M98.9,110c0-0.7-0.5-1.2-1.2-1.2h-2.4c-0.7,0-1.2,0.5-1.2,1.2c0,0.7,0.5,1.2,1.2,1.2h2.4
			C98.4,111.2,98.9,110.7,98.9,110z"/>
		<path fill="#E50000" d="M91.6,110c0-0.7-0.5-1.2-1.2-1.2h-4.9c-0.7,0-1.2,0.5-1.2,1.2c0,0.7,0.5,1.2,1.2,1.2h4.9
			C91.1,111.2,91.6,110.7,91.6,110z"/>
		<path fill="#E50000" d="M81.9,110c0-0.7-0.5-1.2-1.2-1.2H71c-0.7,0-1.2,0.5-1.2,1.2c0,0.7,0.5,1.2,1.2,1.2h9.7
			C81.4,111.2,81.9,110.7,81.9,110z"/>
		<path fill="#E50000" d="M67.4,110c0-0.7-0.5-1.2-1.2-1.2H46.8c-0.7,0-1.2,0.5-1.2,1.2c0,0.7,0.5,1.2,1.2,1.2h19.4
			C66.8,111.2,67.4,110.7,67.4,110z"/>
		<path fill="#E50000" d="M109.8,104h-4.9c-0.7,0-1.2,0.5-1.2,1.2s0.5,1.2,1.2,1.2h4.9c0.7,0,1.2-0.5,1.2-1.2
			C111.1,104.5,110.5,104,109.8,104z"/>
		<path fill="#E50000" d="M97.7,106.4h2.4c0.7,0,1.2-0.5,1.2-1.2s-0.5-1.2-1.2-1.2h-2.4c-0.7,0-1.2,0.5-1.2,1.2
			C96.5,105.8,97,106.4,97.7,106.4z"/>
		<path fill="#E50000" d="M88,106.4h4.9c0.7,0,1.2-0.5,1.2-1.2s-0.5-1.2-1.2-1.2H88c-0.7,0-1.2,0.5-1.2,1.2
			C86.8,105.8,87.3,106.4,88,106.4z"/>
		<path fill="#E50000" d="M73.4,106.4h9.7c0.7,0,1.2-0.5,1.2-1.2s-0.5-1.2-1.2-1.2h-9.7c-0.7,0-1.2,0.5-1.2,1.2
			C72.2,105.8,72.8,106.4,73.4,106.4z"/>
		<path fill="#E50000" d="M49.2,106.4h19.4c0.7,0,1.2-0.5,1.2-1.2s-0.5-1.2-1.2-1.2H49.2c-0.7,0-1.2,0.5-1.2,1.2
			C48,105.8,48.5,106.4,49.2,106.4z"/>
		<path fill="#E50000" d="M109.8,113.7h-4.9c-0.7,0-1.2,0.5-1.2,1.2c0,0.7,0.5,1.2,1.2,1.2h4.9c0.7,0,1.2-0.5,1.2-1.2
			C111,114.2,110.5,113.7,109.8,113.7z"/>
		<path fill="#E50000" d="M100.1,113.7h-2.4c-0.7,0-1.2,0.5-1.2,1.2c0,0.7,0.5,1.2,1.2,1.2h2.4c0.7,0,1.2-0.5,1.2-1.2
			C101.3,114.2,100.8,113.7,100.1,113.7z"/>
		<path fill="#E50000" d="M92.9,113.7H88c-0.7,0-1.2,0.5-1.2,1.2c0,0.7,0.5,1.2,1.2,1.2h4.9c0.7,0,1.2-0.5,1.2-1.2
			C94.1,114.2,93.5,113.7,92.9,113.7z"/>
		<path fill="#E50000" d="M83.1,113.7h-9.7c-0.7,0-1.2,0.5-1.2,1.2c0,0.7,0.5,1.2,1.2,1.2h9.7c0.7,0,1.2-0.5,1.2-1.2
			C84.4,114.2,83.8,113.7,83.1,113.7z"/>
		<path fill="#E50000" d="M68.6,113.7H49.2c-0.7,0-1.2,0.5-1.2,1.2c0,0.7,0.5,1.2,1.2,1.2h19.4c0.7,0,1.2-0.5,1.2-1.2
			C69.8,114.2,69.3,113.7,68.6,113.7z"/>
	</g>
</g>
<g id="Layer_2">
</g>
<path fill="#E50000" d="M104.8,55.8l-22-16.2l-22,16.2h5.3v23.7h11.1V64.7c0-3.1,2.5-5.6,5.6-5.6c3.1,0,5.6,2.5,5.6,5.6v14.8h11.1
	V55.8H104.8z"/>
</svg>
