<?xml version="1.0" encoding="utf-8"?>
<!-- Generator: Adobe Illustrator 18.0.0, SVG Export Plug-In . SVG Version: 6.00 Build 0)  -->
<!DOCTYPE svg PUBLIC "-//W3C//DTD SVG 1.1//EN" "http://www.w3.org/Graphics/SVG/1.1/DTD/svg11.dtd">
<svg version="1.1" id="Layer_1" xmlns="http://www.w3.org/2000/svg" xmlns:xlink="http://www.w3.org/1999/xlink" x="0px" y="0px"
	 width="150px" height="150px" viewBox="-25 -25 150 150" enable-background="new -25 -25 150 150" xml:space="preserve">
<path fill="#E50000" stroke="#FFFFFF" stroke-width="2" stroke-miterlimit="10" d="M114.5,1.9H92.3l-3.4-3.4
	c-0.4-0.4-0.9-0.6-1.4-0.7c-12.9-1.5-26-0.1-38.2,3.9C31.6-4.3,10.7-4.3-7,1.9h-1.9c0,0,0,0,0,0h-7c-1.3,0-2.3,1-2.3,2.3V95v7
	c0,1.3,1,2.3,2.3,2.3h130.4c1.3,0,2.3-1,2.3-2.3v-7V4.2C116.8,2.9,115.8,1.9,114.5,1.9z M112.1,92.7H56.3c1.2-0.4,2.4-0.8,3.5-1.1
	c0.2-0.1,0.4-0.1,0.7-0.2c1.6-0.4,3.1-0.8,4.6-1.2c0.5-0.1,1-0.2,1.5-0.3c1-0.2,2-0.4,3.1-0.6c0.6-0.1,1.2-0.2,1.8-0.3
	c0.9-0.1,1.8-0.3,2.7-0.4c0.6-0.1,1.2-0.1,1.8-0.2c0.9-0.1,1.7-0.2,2.6-0.2c0.6,0,1.1-0.1,1.7-0.1c0.9,0,1.9,0,2.8,0
	c0.4,0,0.9,0,1.3,0c1.3,0,2.7,0.1,4,0.2c0.7,0.1,1.4-0.2,1.9-0.7l5-5c0.3-0.3,0.5-0.7,0.6-1.1c0-0.2,0.1-0.4,0.1-0.6s0-0.4-0.1-0.6
	c-0.1-0.4-0.3-0.8-0.6-1.1l-7.7-7.7l7.7-7.7c0.3-0.3,0.6-0.8,0.6-1.2c0-0.1,0-0.3,0-0.4c0-0.2,0-0.4-0.1-0.6
	c-0.1-0.4-0.3-0.8-0.6-1.1L87.5,53l7.7-7.7c0.3-0.3,0.6-0.8,0.6-1.2c0-0.1,0-0.3,0-0.4s0-0.3,0-0.4c-0.1-0.4-0.3-0.9-0.6-1.2
	l-7.7-7.7l7.7-7.7c0.3-0.3,0.6-0.8,0.6-1.2c0-0.1,0-0.3,0-0.4s0-0.3,0-0.4c-0.1-0.4-0.3-0.9-0.6-1.2l-7.7-7.7l7.7-7.7
	c0.2-0.2,0.4-0.4,0.5-0.7c0,0,0,0,0-0.1c0.1-0.2,0.2-0.5,0.2-0.7c0,0,0,0,0-0.1h16.3V92.7z M-5.7,92.5c0.9-0.4,1.8-0.8,2.8-1.1
	c0.3-0.1,0.6-0.2,0.9-0.3c0.6-0.2,1.3-0.4,1.9-0.6c0.4-0.1,0.7-0.2,1.1-0.3c0.6-0.2,1.2-0.3,1.8-0.5c0.4-0.1,0.8-0.2,1.2-0.3
	c0.6-0.1,1.2-0.3,1.8-0.4c0.4-0.1,0.8-0.1,1.2-0.2c0.6-0.1,1.2-0.2,1.8-0.3c0.4-0.1,0.8-0.1,1.3-0.2c0.6-0.1,1.2-0.1,1.9-0.2
	c0.4,0,0.8-0.1,1.3-0.1c0.6,0,1.3-0.1,2-0.1c0.4,0,0.8,0,1.2,0c0.7,0,1.4,0,2.2,0c0.4,0,0.7,0,1.1,0c0.9,0,1.8,0.1,2.7,0.2
	c0.2,0,0.3,0,0.5,0c1.1,0.1,2.2,0.2,3.4,0.4c0.2,0,0.5,0.1,0.7,0.1c0.9,0.1,1.8,0.3,2.6,0.4c0.4,0.1,0.8,0.2,1.2,0.2
	c0.7,0.1,1.5,0.3,2.2,0.5c0.5,0.1,0.9,0.2,1.4,0.3c0.7,0.2,1.4,0.3,2.1,0.5c0.5,0.1,1,0.3,1.5,0.4c0.7,0.2,1.4,0.4,2.1,0.6
	c0.5,0.2,1,0.3,1.5,0.5c0.3,0.1,0.6,0.2,0.9,0.3H-6.6C-6.3,92.7-6,92.6-5.7,92.5z M86.2,2.4l4,4l-7.7,7.7c-0.3,0.3-0.6,0.8-0.6,1.2
	c0,0.1,0,0.3,0,0.4s0,0.3,0,0.4c0.1,0.4,0.3,0.9,0.6,1.2l7.7,7.7l-7.7,7.7c-0.3,0.3-0.5,0.7-0.6,1.1c0,0.2-0.1,0.4-0.1,0.6
	c0,0.2,0,0.4,0.1,0.6c0.1,0.4,0.3,0.8,0.6,1.1l7.7,7.7l-7.7,7.7c-0.3,0.3-0.6,0.8-0.6,1.2c0,0.1,0,0.3,0,0.4c0,0.1,0,0.3,0,0.4
	c0.1,0.4,0.3,0.9,0.6,1.2l7.7,7.7L82.6,70c-0.3,0.3-0.6,0.8-0.6,1.2c0,0.1,0,0.3,0,0.4s0,0.3,0,0.4c0.1,0.4,0.3,0.9,0.6,1.2l7.7,7.7
	l-1.8,1.8l-0.8,0.8c-1.4-0.1-2.8-0.2-4.2-0.2c-0.4,0-0.9,0-1.3,0c-1,0-2,0-3.1,0.1c-0.5,0-1.1,0.1-1.7,0.1c-0.9,0.1-1.9,0.1-2.8,0.2
	c-0.6,0.1-1.2,0.2-1.8,0.2c-0.9,0.1-1.8,0.2-2.8,0.4c-0.6,0.1-1.3,0.2-1.9,0.4c-0.9,0.2-1.8,0.4-2.8,0.6c-0.7,0.1-1.4,0.3-2.1,0.5
	c-0.9,0.2-1.8,0.5-2.8,0.7c-0.7,0.2-1.4,0.4-2.2,0.6c-0.9,0.3-1.9,0.5-2.8,0.8c-0.7,0.2-1.5,0.5-2.3,0.7c-0.5,0.2-1,0.3-1.6,0.5V5.9
	C62.6,2.3,74.5,1.1,86.2,2.4z M-5.8,6.4c16.5-5.9,36.1-6.1,52.8-0.5v83.4c-0.3-0.1-0.5-0.2-0.8-0.3c-0.7-0.3-1.4-0.5-2.1-0.7
	c-0.6-0.2-1.2-0.4-1.8-0.6c-0.7-0.2-1.4-0.4-2.1-0.7c-0.6-0.2-1.2-0.3-1.7-0.5c-0.7-0.2-1.4-0.4-2.1-0.6c-0.6-0.1-1.1-0.3-1.7-0.4
	c-0.7-0.2-1.4-0.3-2.1-0.5c-0.5-0.1-1.1-0.2-1.6-0.3c-0.7-0.1-1.4-0.2-2.1-0.4c-0.5-0.1-1.1-0.2-1.6-0.3c-0.7-0.1-1.4-0.2-2.1-0.3
	c-0.5-0.1-1.1-0.1-1.6-0.2c-0.7-0.1-1.4-0.1-2-0.2c-0.5,0-1-0.1-1.6-0.1c-0.7,0-1.3,0-2-0.1c-0.4,0-0.9,0-1.3,0c-0.1,0-0.2,0-0.3,0
	c-0.4,0-0.8,0-1.3,0c-0.7,0-1.3,0-2,0.1c-0.5,0-0.9,0.1-1.3,0.1c-0.6,0-1.2,0.1-1.9,0.2c-0.5,0-0.9,0.1-1.4,0.2
	c-0.6,0.1-1.2,0.2-1.8,0.3c-0.5,0.1-0.9,0.1-1.4,0.2c-0.6,0.1-1.2,0.2-1.7,0.3c-0.4,0.1-0.9,0.2-1.3,0.3c-0.6,0.1-1.2,0.3-1.8,0.4
	c-0.4,0.1-0.8,0.2-1.3,0.3C-1.4,86-2,86.2-2.6,86.4c-0.4,0.1-0.7,0.2-1.1,0.4c-0.9,0.3-1.8,0.7-2.7,1c-0.1,0-0.1,0-0.2,0.1V6.5
	C-6.3,6.5-6.1,6.5-5.8,6.4z M-13.6,6.5h2.3v83.8c0,1,0.6,1.8,1.4,2.1c0.3,0.1,0.6,0.2,0.9,0.2h-4.7V6.5z M112.1,99.7H-13.6v-2.3
	h125.7V99.7z"/>
<g>
	<path fill="#E50000" d="M33.9,38.1H10.8c-0.8,0-1.4,0.6-1.4,1.4c0,0.8,0.6,1.4,1.4,1.4h13v4.3c0,3.2,2.6,5.8,5.8,5.8
		s5.8-2.6,5.8-5.8v-5.8C35.4,38.7,34.7,38.1,33.9,38.1z M32.5,45.3c0,1.6-1.3,2.9-2.9,2.9c-1.6,0-2.9-1.3-2.9-2.9V41h5.8V45.3z"/>
	<path fill="#E50000" d="M10.8,32.3c0.4,0,0.7-0.1,1-0.4c0.6-0.6,0.6-1.5,0-2l-1.9-1.9l1.9-1.9c0.6-0.6,0.6-1.5,0-2
		c-0.6-0.6-1.5-0.6-2,0l-1.9,1.9L6,24c-0.6-0.6-1.5-0.6-2,0c-0.6,0.6-0.6,1.5,0,2l1.9,1.9l-1.9,1.9c-0.6,0.6-0.6,1.5,0,2
		c0.3,0.3,0.7,0.4,1,0.4s0.7-0.1,1-0.4L7.9,30l1.9,1.9C10,32.1,10.4,32.3,10.8,32.3z"/>
	<path fill="#E50000" d="M40.8,24c-0.6-0.6-1.5-0.6-2,0l-1.9,1.9L35,24c-0.6-0.6-1.5-0.6-2,0c-0.6,0.6-0.6,1.5,0,2l1.9,1.9l-1.9,1.9
		c-0.6,0.6-0.6,1.5,0,2c0.3,0.3,0.7,0.4,1,0.4c0.4,0,0.7-0.1,1-0.4l1.9-1.9l1.9,1.9c0.3,0.3,0.7,0.4,1,0.4s0.7-0.1,1-0.4
		c0.6-0.6,0.6-1.5,0-2l-1.9-1.9l1.9-1.9C41.3,25.5,41.3,24.6,40.8,24z"/>
</g>
</svg>
