<?xml version="1.0" encoding="utf-8"?>
<!-- Generator: Adobe Illustrator 18.0.0, SVG Export Plug-In . SVG Version: 6.00 Build 0)  -->
<!DOCTYPE svg PUBLIC "-//W3C//DTD SVG 1.1//EN" "http://www.w3.org/Graphics/SVG/1.1/DTD/svg11.dtd">
<svg version="1.1" id="Layer_1" xmlns="http://www.w3.org/2000/svg" xmlns:xlink="http://www.w3.org/1999/xlink" x="0px" y="0px"
	 width="56.5px" height="56.5px" viewBox="43.5 43.5 56.5 56.5" enable-background="new 43.5 43.5 56.5 56.5" xml:space="preserve">
<title>Artboard 23</title>
<g>
	<path fill="#E50000" d="M68.5,52.4c-0.2-1.1,0.5-2.2,1.6-2.5c1.1-0.2,2.2,0.5,2.5,1.6c0.1,0.3,0.1,0.6,0,0.8c0,0.1-0.1,0.3-0.1,0.4
		c-0.1,0.1-0.1,0.2-0.2,0.4c-0.2,0.2-0.3,0.4-0.6,0.6c-0.1,0.1-0.2,0.1-0.4,0.2C71.2,54,71,54,70.9,54c-0.1,0-0.3,0-0.4,0
		c-0.6,0-1.1-0.2-1.5-0.6c-0.1-0.1-0.2-0.2-0.3-0.3c-0.1-0.1-0.1-0.2-0.2-0.4C68.5,52.7,68.5,52.5,68.5,52.4z M70.5,66
		c0.6,0,1.1-0.2,1.5-0.6c0.1-0.1,0.2-0.2,0.3-0.3c0.1-0.1,0.1-0.2,0.2-0.4c0.1-0.1,0.1-0.3,0.1-0.4c0-0.1,0-0.3,0-0.4
		c0-1.2-0.9-2.1-2.1-2.1c-0.1,0-0.3,0-0.4,0c-0.1,0-0.3,0.1-0.4,0.1c-0.1,0.1-0.2,0.1-0.4,0.2c-0.1,0.1-0.2,0.2-0.3,0.3
		c-0.8,0.8-0.8,2.1,0,2.9C69.4,65.7,69.9,66,70.5,66z M68.6,76.6c0.1,0.1,0.1,0.2,0.2,0.4c0.2,0.2,0.3,0.4,0.6,0.6
		c0.1,0.1,0.2,0.1,0.4,0.2c0.1,0.1,0.3,0.1,0.4,0.1c0.1,0,0.3,0,0.4,0c1.2,0,2.1-0.9,2.1-2.1c0-0.6-0.2-1.1-0.6-1.5
		c-0.5-0.5-1.2-0.7-1.9-0.6c-0.1,0-0.3,0.1-0.4,0.1c-0.1,0.1-0.2,0.1-0.4,0.2c-0.1,0.1-0.2,0.2-0.3,0.3c-0.1,0.1-0.2,0.2-0.3,0.3
		c-0.1,0.1-0.1,0.2-0.2,0.4c-0.1,0.1-0.1,0.3-0.1,0.4c-0.1,0.3-0.1,0.5,0,0.8C68.5,76.3,68.5,76.4,68.6,76.6z"/>
</g>
</svg>
