<?xml version="1.0" encoding="utf-8"?>
<!-- Generator: Adobe Illustrator 18.0.0, SVG Export Plug-In . SVG Version: 6.00 Build 0)  -->
<!DOCTYPE svg PUBLIC "-//W3C//DTD SVG 1.1//EN" "http://www.w3.org/Graphics/SVG/1.1/DTD/svg11.dtd">
<svg version="1.1" id="Layer_1" xmlns="http://www.w3.org/2000/svg" xmlns:xlink="http://www.w3.org/1999/xlink" x="0px" y="0px"
	 width="100px" height="100px" viewBox="419 282 100 100" enable-background="new 419 282 100 100" xml:space="preserve">
<title>arrow-right</title>
<desc>Created with Sketch.</desc>
<g>
	<g>
		<path fill="#E50000" d="M457.6,289.2c0.7,0,1.3,0.3,1.9,0.8l38.1,38.1c0.5,0.5,0.8,1.2,0.8,1.9c0,0.7-0.3,1.3-0.8,1.9L459.5,370
			c-0.5,0.5-1.2,0.8-1.9,0.8s-1.3-0.3-1.9-0.8l-4.1-4.1c-0.5-0.5-0.8-1.2-0.8-1.9c0-0.7,0.3-1.3,0.8-1.9l32.1-32.1l-32.1-32.1
			c-0.5-0.5-0.8-1.2-0.8-1.9c0-0.7,0.3-1.3,0.8-1.9l4.1-4.1C456.3,289.5,456.9,289.2,457.6,289.2L457.6,289.2z"/>
	</g>
</g>
</svg>
