<?xml version="1.0" encoding="utf-8"?>
<!-- Generator: Adobe Illustrator 18.0.0, SVG Export Plug-In . SVG Version: 6.00 Build 0)  -->
<!DOCTYPE svg PUBLIC "-//W3C//DTD SVG 1.1//EN" "http://www.w3.org/Graphics/SVG/1.1/DTD/svg11.dtd">
<svg version="1.1" id="Layer_1" xmlns="http://www.w3.org/2000/svg" xmlns:xlink="http://www.w3.org/1999/xlink" x="0px" y="0px"
	 width="100px" height="100px" viewBox="419 282 100 100" enable-background="new 419 282 100 100" xml:space="preserve">
<title>arrow-right</title>
<desc>Created with Sketch.</desc>
<g>
	<g>
		<path fill="#E50000" d="M483.8,370.8c-0.7,0-1.3-0.3-1.9-0.8l-38.1-38.1c-0.5-0.5-0.8-1.2-0.8-1.9c0-0.7,0.3-1.3,0.8-1.9
			l38.1-38.1c0.5-0.5,1.2-0.8,1.9-0.8s1.3,0.3,1.9,0.8l4.1,4.1c0.5,0.5,0.8,1.2,0.8,1.9c0,0.7-0.3,1.3-0.8,1.9L457.6,330l32.1,32.1
			c0.5,0.5,0.8,1.2,0.8,1.9c0,0.7-0.3,1.3-0.8,1.9l-4.1,4.1C485.1,370.5,484.5,370.8,483.8,370.8L483.8,370.8z"/>
	</g>
</g>
</svg>
