<?xml version="1.0" encoding="utf-8"?>
<!-- Generator: Adobe Illustrator 18.0.0, SVG Export Plug-In . SVG Version: 6.00 Build 0)  -->
<!DOCTYPE svg PUBLIC "-//W3C//DTD SVG 1.1//EN" "http://www.w3.org/Graphics/SVG/1.1/DTD/svg11.dtd">
<svg version="1.1"
	 id="Layer_1" xmlns:rdf="http://www.w3.org/1999/02/22-rdf-syntax-ns#" xmlns:dc="http://purl.org/dc/elements/1.1/" xmlns:cc="http://creativecommons.org/ns#" xmlns:inkscape="http://www.inkscape.org/namespaces/inkscape" xmlns:sodipodi="http://sodipodi.sourceforge.net/DTD/sodipodi-0.dtd" xmlns:svg="http://www.w3.org/2000/svg"
	 xmlns="http://www.w3.org/2000/svg" xmlns:xlink="http://www.w3.org/1999/xlink" x="0px" y="0px" width="100px" height="100px"
	 viewBox="0 0 100 100" enable-background="new 0 0 100 100" xml:space="preserve">
<g transform="translate(0,-952.36218)">
	<path fill="#E50000" stroke="#E50000" stroke-miterlimit="10" d="M44,970.9c-12.8,0-23.2,10.4-23.2,23.2s10.4,23.2,23.2,23.2
		c5.8,0,11.1-2.2,15.2-5.7l21.2,21.2c0.6,0.6,1.7,0.6,2.3,0c0.6-0.6,0.6-1.7,0-2.3l-21.2-21.2c3.5-4.1,5.7-9.4,5.7-15.2
		C67.2,981.3,56.8,970.9,44,970.9z M44,974.1c11.1,0,20,8.9,20,20s-8.9,20-20,20s-20-8.9-20-20S32.9,974.1,44,974.1z"/>
</g>
</svg>
