<?xml version="1.0" encoding="utf-8"?>
<!-- Generator: Adobe Illustrator 18.0.0, SVG Export Plug-In . SVG Version: 6.00 Build 0)  -->
<!DOCTYPE svg PUBLIC "-//W3C//DTD SVG 1.1//EN" "http://www.w3.org/Graphics/SVG/1.1/DTD/svg11.dtd">
<svg version="1.1" id="Layer_1" xmlns="http://www.w3.org/2000/svg" xmlns:xlink="http://www.w3.org/1999/xlink" x="0px" y="0px"
	 width="100px" height="100px" viewBox="0 0 100 100" enable-background="new 0 0 100 100" xml:space="preserve">
<g>
	<path fill="#DD0707" d="M20.4,75.7c8.3,0.8,15.8-1.3,22.4-6.4c-3.3-0.2-6.2-1.2-8.8-3.2c-2.6-1.9-4.4-4.4-5.4-7.4
		c1.1,0,2.2,0,3.3,0c1.1-0.1,2.2-0.2,3.2-0.5c-4.5-1.2-7.9-3.7-10.1-7.7c-1.4-2.4-2.1-5.5-1.9-7.6c1.1,0.4,2.1,0.9,3.2,1.2
		c1.1,0.3,2.3,0.4,3.4,0.6C23.1,39,21.6,32.1,25.3,24c8.5,9.9,19.1,15.4,32,16.3c-0.1-1-0.2-1.9-0.3-2.8c-0.2-4.8,1.4-8.9,4.9-12.2
		c3.9-3.6,8.5-4.8,13.7-3.8c3,0.6,5.6,2,7.7,4.1c0.3,0.3,0.6,0.4,1.1,0.3c2.9-0.7,5.7-1.6,8.3-3.1c0.3-0.1,0.5-0.3,0.9-0.5
		c-1.2,3.6-3.4,6.3-6.4,8.4c2.9-0.2,5.6-1.1,8.5-2.2c-1.4,2.2-3,4-4.8,5.6c-0.8,0.7-1.6,1.3-2.4,2c-0.4,0.3-0.6,0.6-0.5,1.2
		c0.2,4.4-0.4,8.8-1.6,13.1c-1,3.7-2.5,7.1-4.4,10.4c-2,3.6-4.5,6.8-7.4,9.7c-3.9,3.9-8.5,6.9-13.7,9c-4.9,2-9.9,3-15.2,3.2
		c-3.7,0.1-7.3-0.1-10.9-0.9c-3.6-0.8-7.1-1.9-10.5-3.6c-1.4-0.7-2.7-1.5-4.1-2.2C20.4,75.8,20.4,75.8,20.4,75.7z"/>
</g>
</svg>
