<?xml version="1.0" encoding="utf-8"?>
<!-- Generator: Adobe Illustrator 18.0.0, SVG Export Plug-In . SVG Version: 6.00 Build 0)  -->
<!DOCTYPE svg PUBLIC "-//W3C//DTD SVG 1.1//EN" "http://www.w3.org/Graphics/SVG/1.1/DTD/svg11.dtd">
<svg version="1.1" id="Layer_1" xmlns="http://www.w3.org/2000/svg" xmlns:xlink="http://www.w3.org/1999/xlink" x="0px" y="0px"
	 width="57.3px" height="90.9px" viewBox="0 0 57.3 90.9" enable-background="new 0 0 57.3 90.9" xml:space="preserve">
<g id="Layer_2">
</g>
<g id="Layer_1_1_">
	
		<rect x="1.4" y="1.1" opacity="8.000000e-02" fill="none" stroke="#DA0D15" stroke-miterlimit="10" enable-background="new    " width="54.7" height="88.5"/>
	<path fill="#FFFFFF" d="M32.7,64.2c0,0.4-0.4,0.8-0.8,0.8c-0.4,0-0.8-0.4-0.8-0.8s0.4-0.8,0.8-0.8C32.3,63.4,32.7,63.8,32.7,64.2z"
		/>
	<g>
		<path fill="#DA0D15" d="M32.4,17.2c-0.8,2.7-1.9,6.2-3,8.6c-2.9,6.3-7.2,10.7-13.3,13.3c0,0,1.5,2.3,1.6,2.5
			c0.6,0.8,1.2,1.6,1.8,2.4c1.3,1.6,2.6,3,4,4.5c2.8,2.9,5.6,5.8,7.9,9.1c0.6,0.9,1.2,1.9,1.7,2.9c0.7,1.2,1.6,3.1,0.4,4.7
			c-0.7,0.9-2.2,1.3-3.1,0.9c-1.4-0.7-0.8-2.6-1-3.8c-0.3-1.6-1.1-3.3-1.9-4.7c-1.6-3.1-3.9-5.7-6.2-8.3c-1.3-1.4-2.5-2.8-3.7-4.3
			c-1.3-1.6-2.7-3.1-4.1-4.6c-1.2-1.3-3-2.4-2.9-4.5c0.1-1.9,2.8-3.4,4.4-2.8c0.4,0.2,0.9,0.6,1,1c0.1,0.1,0.3,1,0.1,1.1
			c6.6-2.4,10.5-9.6,11.7-18c-4.4,0-8.2-0.4-12.9,0c-1.4,0.1-3.4,0.5-4.3,0.4c-1-0.2-1.5-1-1.4-2c0.2-1.7,1.8-2.2,3.2-2
			c0.5,0.1,1.1,0.1,1.7,0.1c3.1,0.3,6.3,0.4,9.4,0.5c0.9,0,1.9,0.1,2.8,0.2c0.9,0.1,1.8,0.1,2.7-0.2c0.3-0.1,0.6-0.6,1-0.8
			c1.1-0.5,2.1,0,2.6,0.6c4.7-0.3,9.5-0.3,13.8-1c1.5-0.1,2.1,0.5,2.5,1.2c0.2,1.3-0.5,2.4-1.6,2.9c-1.4,0.7-3.1,0.3-4.5,0.3
			c-1.7,0-3.4-0.1-5.1-0.1c-1.4,0-2.8-0.1-4.2-0.2C33.6,17.2,32.5,17.1,32.4,17.2z"/>
	</g>
	<g>
		<path d="M9.9,75c-0.2,0.5-0.4,1.2-0.6,1.2c-0.2,0-0.8-0.1-0.8-0.4c0-0.5,1.9-6.3,1.9-6.9c0-0.1,0-0.2-0.2-0.2
			c-0.3,0-1.1,0.9-1.4,1.3l-0.1,0.1c-0.1,0-0.2-0.1-0.2-0.2c0-0.4,1.6-2.3,2.5-2.3c0.3,0,0.5,0.2,0.5,0.6c0,1.2-0.9,3.5-0.9,3.9
			c0.3-0.2,1.9-4.7,3.9-4.7c0.6,0,0.8,0.3,0.8,0.8s-0.3,1.4-0.9,1.4c-0.7,0-0.1-1.1-0.8-1.1C13.2,68.5,11.9,70.1,9.9,75z"/>
		<path d="M20.9,67.4c0.3,0,0.6,0.2,0.6,0.3c0,0.5-2.4,6-2.4,6.5c0,0.2,0.1,0.2,0.2,0.2c0.3,0,1.1-0.6,2-2c0-0.1,0.1-0.1,0.1-0.1
			c0.1,0,0.2,0.1,0.2,0.2c0,0.3-1.5,3.3-3.3,3.3c-0.3,0-0.5-0.3-0.5-0.7c0-0.7,0.6-2,0.6-2.3c-0.7,0.9-2.6,3.1-4.2,3.1
			c-0.5,0-0.7-0.4-0.7-1.1c0-2.6,3.1-5.6,4.6-6.3c0.5-0.3,1.1-0.3,1.7-0.3c0.1,0,0.3,0,0.4,0C20.4,67.9,20.6,67.4,20.9,67.4z
			 M19.1,68.9c-1.2,0-4.2,3.1-4.2,4.8c0,0.5,0.2,0.8,0.7,0.8c1.8,0,4-3.8,4-5C19.6,69,19.4,68.9,19.1,68.9z"/>
		<path d="M23.6,76.1c-0.9,0-1.8-0.6-1.8-1.4c0-0.4,0.3-0.7,0.6-0.7c0.7,0,0.6,1.4,1.7,1.4c0.6,0,1-0.3,1-1.2c0-1.3-1-2.6-1-4.1
			c0-1.9,1.3-2.8,2.4-2.8c0.8,0,1.4,0.5,1.4,1.1c0,0.5-0.2,0.7-0.6,0.7c-0.7,0-0.7-1-1.6-1c-0.5,0-0.7,0.4-0.7,0.9
			c0,1.2,1.2,2.4,1.2,4.4C26.2,75.3,25.1,76.1,23.6,76.1z"/>
		<path d="M32.5,68.1c0,1.3-3,5.9-3,6.5c0,0.1,0.1,0.2,0.2,0.2c0.3,0,1.2-0.7,1.5-1l0.1-0.1c0.1,0,0.2,0.1,0.2,0.2
			c0,0.6-1.8,2.3-2.8,2.3c-0.5,0-0.6-0.4-0.6-0.8c0-1.7,2.9-5.7,2.9-6.3c0-0.1,0-0.2-0.2-0.2c-0.3,0-1.1,0.6-1.5,1.1
			c-0.1,0-0.1,0-0.1,0c-0.1,0-0.2-0.1-0.2-0.2c0-0.4,1.9-2.3,2.9-2.3C32.2,67.5,32.5,67.6,32.5,68.1z"/>
		<path d="M38.3,75.4c0.3,0,0.4-0.2,0.4-0.5s0.2-0.6,0.5-0.6s0.6,0.3,0.6,0.6c0,0.5-0.3,1.1-1.3,1.1c-1.8,0-2.9-1.8-3.4-4.3
			c-1,3.6-1.1,4.3-1.4,4.3c-0.3,0-0.7-0.1-0.7-0.4c0-0.4,3.3-11.9,3.3-12.6c0-0.1,0-0.2-0.2-0.2l-0.8-0.3l-0.1-0.1
			c0-0.1,0-0.2,0.1-0.2c0.8,0,1.7-0.3,2.2-0.3c0.2,0,0.2,0.1,0.2,0.3c0,0.4-2.4,7.9-2.4,8.4c1.5-2.4,3-3.2,4-3.2
			c0.8,0,1.3,0.5,1.3,1.2c0,1.1-1.5,2.7-5.4,2.8C36.7,73.4,37.7,75.4,38.3,75.4z M39.6,69c0-0.3-0.3-0.6-0.7-0.6
			c-1.1,0-2.3,1.4-3.3,2.6C38.5,70.7,39.6,69.6,39.6,69z"/>
		<path d="M48.3,67.4c0.3,0,0.6,0.2,0.6,0.3c0,0.5-2.4,6-2.4,6.5c0,0.2,0.1,0.2,0.2,0.2c0.3,0,1.1-0.6,2-2c0-0.1,0.1-0.1,0.1-0.1
			c0.1,0,0.2,0.1,0.2,0.2c0,0.3-1.5,3.3-3.3,3.3c-0.3,0-0.5-0.3-0.5-0.7c0-0.7,0.6-2,0.6-2.3c-0.7,0.9-2.6,3.1-4.2,3.1
			c-0.5,0-0.7-0.4-0.7-1.1c0-2.6,3.1-5.6,4.6-6.3c0.5-0.3,1.1-0.3,1.7-0.3c0.1,0,0.3,0,0.4,0C47.8,67.9,48,67.4,48.3,67.4z
			 M46.5,68.9c-1.2,0-4.2,3.1-4.2,4.8c0,0.5,0.2,0.8,0.7,0.8c1.8,0,4-3.8,4-5C47,69,46.8,68.9,46.5,68.9z"/>
	</g>
	<path fill="#FFFFFF" d="M32.8,64.1c0,0.5-0.4,0.9-0.9,0.9S31,64.6,31,64.1s0.4-0.9,0.9-0.9C32.4,63.2,32.8,63.6,32.8,64.1z"/>
</g>
</svg>
